<?xml version="1.0" encoding="utf-8" ?>
<svg xmlns="http://www.w3.org/2000/svg" xmlns:xlink="http://www.w3.org/1999/xlink" width="512" height="512">
	<path d="M136.002 13.7623L385.823 13.7576C398.529 13.7329 401.677 13.1101 401.561 25.4999L401.504 183.22L448.986 183.199C466.92 183.229 482.894 193.397 485.066 212.392C485.494 216.128 485.25 220.083 485.253 223.843L485.141 444.911C483.692 471.364 466.225 491.897 439.18 494.899C435.385 495.32 431.553 495.255 427.741 495.262L376.187 495.261L86.0298 495.259C81.2037 495.262 76.2819 495.438 71.5078 494.601C43.5757 489.702 27.3007 466.966 27.2605 439.624L27.2564 98.3197C27.2645 94.7327 27.9037 93.4252 30.3785 90.8098L102.692 19.3351C105.535 16.5349 107.193 14.0535 111.35 13.8582L136.002 13.7623Z"/>
	<path fill="#437197" d="M104.628 35.8742L104.781 89.968L51.375 89.9925L50.2664 90.175L104.628 35.8742Z"/>
	<path fill="#2A4D6C" d="M428.8 196.163C433.586 195.883 438.522 196.118 443.322 196.121C455.963 196.127 465.978 195.511 471.497 210.374L472.199 212.031C472.508 213.063 472.509 214.453 472.573 215.529L472.731 432.085C472.729 437.28 472.951 442.62 472.58 447.8C471.422 463.946 459.409 477.285 443.81 481.215C433.494 483.833 422.803 481.532 414.705 474.485C408.424 469.021 402.092 459.715 401.617 451.037L401.495 196.169L428.8 196.163Z"/>
	<path fill="#E6EDED" d="M117.769 26.8714L388.465 26.908L388.479 434.633C388.487 453.331 388.528 464.12 401.308 479.082C402.065 479.969 402.954 481.672 403.904 482.22L325.875 482.465L82.9403 482.443C61.7898 482.342 43.5467 469.23 40.3758 447.42C39.8815 444.02 40.1761 440.237 40.1751 436.793L40.1151 102.588L105.314 102.641C118.042 102.642 117.865 100.102 117.763 89.2034L117.769 26.8714Z"/>
	<path d="M113.565 252.627L199.851 252.619C203.353 252.619 207.093 252.366 210.568 252.702C217.821 253.404 218.138 263.889 211.075 265.356C208.206 265.953 204.32 265.496 201.358 265.494L177.875 265.472L90.9292 265.478C87.6133 265.477 84.0974 265.744 80.8146 265.371C73.1302 264.498 73.2444 253.994 81 252.773C84.1543 252.277 87.8761 252.64 91.0735 252.636L113.565 252.627Z"/>
	<path d="M182.882 196.17L202.289 196.137C204.818 196.133 208.342 195.672 210.729 196.363L211 196.448C218.173 198.616 218.123 208.089 210.765 208.97C207.364 209.377 203.587 209.082 200.151 209.081L108.375 209.089L89.8634 209.117C86.834 209.12 83.4815 209.399 80.4872 208.999C73.3086 208.041 72.9303 197.433 79.9477 196.363C83.179 195.871 86.8576 196.184 90.1344 196.181L182.882 196.17Z"/>
	<path d="M158.889 310.195L204.927 310.176C206.983 310.176 210.039 309.798 211.93 310.605L212.25 310.756C218.119 313.455 217.787 322.456 210.875 323.206C208.261 323.49 205.376 323.253 202.733 323.25L132.625 323.231L87.0895 323.226C84.0261 323.222 79.8585 323.788 77.375 321.56C73.1782 317.794 74.7923 311.013 80.7476 310.32C83.4822 310.002 86.4519 310.21 89.2105 310.208L158.889 310.195Z"/>
	<path d="M180.149 70.7942L342.998 70.7802C345.144 70.7805 347.363 70.664 349.5 70.8646C355.937 71.4689 356.729 82.38 349.625 83.6956C347.258 84.1339 344.507 83.886 342.088 83.889L327.875 83.8849L178.932 83.8973C172.447 83.8974 165.733 84.2595 159.27 83.8075C152.301 83.3201 151.118 72.9977 157.972 71.0856C160.149 70.4784 163.185 70.8243 165.473 70.8177L180.149 70.7942Z"/>
	<path d="M81.0123 367.052L349 367.216C355.696 367.436 357.212 378.746 348.141 379.85L82.7738 379.872C72.6742 379.624 72.2647 368.873 81.0123 367.052Z"/>
	<path d="M82.0877 140.594L337.671 140.541C341.02 140.543 344.466 140.385 347.803 140.58C356.455 141.085 356.195 152.143 348.481 153.497L81.6529 153.496C72.7205 153.249 72.8305 141.601 82.0877 140.594Z"/>
	<path d="M83.6272 425.116L339.496 425.03C342.419 425.031 345.448 424.871 348.361 425.077C356.346 425.642 357.886 437.893 346.472 438.257L83.0132 438.018C71.5066 437.814 72.0983 425.794 83.6272 425.116Z"/>
	<path d="M247.913 197.11L336.194 197.131C348.162 197.138 353.253 194.476 353.217 209.128L353.227 310.773C353.222 319.062 353.463 323.86 343.777 324.186L244.875 323.975C242.358 323.889 239.736 322.273 238.8 319.895L238.667 319.533C237.757 317.108 238.218 314.128 238.22 311.588L238.2 210.333C238.101 201.219 237.49 197.56 247.913 197.11Z"/>
	<path fill="#FFA54F" d="M251.782 210.375L340.283 210.328L339.944 311.236L251.255 310.95C250.718 310.025 251.116 306.75 251.115 305.475L251.088 217.756C251.083 215.425 250.836 212.78 251.186 210.49L251.782 210.375Z"/>
</svg>
