<?xml version="1.0" encoding="utf-8" ?>
<svg xmlns="http://www.w3.org/2000/svg" xmlns:xlink="http://www.w3.org/1999/xlink" width="512" height="512">
	<path fill="#A82467" d="M113.212 13.3266C115.029 13.4921 117.21 13.2619 119.058 13.2594L376.689 13.2516C385.831 13.2519 395.157 12.8102 404.25 13.7509C455.036 19.0046 496.091 61.5017 498.021 112.745L498.1 384.089C498.11 395.275 497.941 405.869 495.519 416.85C485.993 460.031 444.097 494.148 400.063 495.803C399.406 495.681 398.078 495.917 397.348 495.93L139.984 495.927C123.952 495.933 107.863 496.68 92.125 492.991C48.5685 482.781 16.7658 442.684 14.3068 398.503C13.9572 392.222 14.2476 385.773 14.2458 379.477L14.2429 125.965C14.2375 115.977 14.2651 106.389 16.1189 96.5192C24.8644 49.9557 66.3468 15.8388 113.212 13.3266ZM85.4991 165.785L85.5422 389.628C85.5531 392.72 85.4185 395.917 85.8165 398.986C86.4296 403.713 91.8016 409.377 96.625 409.768C101.24 410.143 106.028 409.897 110.664 409.887L415.384 409.779C418.157 409.336 420.345 407.63 422.334 405.763C426.778 400.679 426.531 396.677 426.531 390.395L426.503 165.897L85.4991 165.785ZM330.716 100.499L109.111 100.505C100.462 100.512 89.8793 99.7756 86.6086 110.106L86.3102 110.901C85.4093 113.059 85.5779 115.53 85.5512 117.833L85.4984 153.903L180.688 153.99L418.134 153.965C420.898 153.959 423.806 154.15 426.544 153.852L426.518 118.078C426.503 110.331 425.283 105.022 417.25 101.252L416.965 101.11C416.138 100.705 415.422 100.53 414.5 100.497L330.716 100.499Z"/>
	<path fill="#A82467" d="M350.705 121.862C354.86 121.385 365.599 120.901 369.13 122.345L369.5 122.501C376.37 125.264 374.077 132.706 366.985 133.637L366.312 133.722L356.722 133.845C354.142 133.963 351.591 134.566 349.012 134.079L348.625 134.001C341.109 132.575 341.715 123.049 349.155 122.048L350.705 121.862Z"/>
	<path fill="#A82467" d="M384.008 121.8L394.321 121.607C400.252 121.629 411.487 122.108 406.595 131.268C405.664 133.011 404.198 133.678 402.426 134.278C399.352 134.589 396.099 134.369 393.003 134.352C388.359 134.326 380.291 135.948 378.66 129.857C377.563 125.76 380.282 122.808 384.008 121.8Z"/>
	<path fill="#A82467" d="M308.485 121.811C315.793 121.601 323.527 121.025 330.75 122.223C338.931 123.579 337.825 131.071 331.071 133.796L329.5 134.197C325.072 134.978 307.99 134.624 305.507 132.861L305.276 132.689C301.325 129.813 302.707 123.692 307.27 122.144L308.485 121.811Z"/>
	<path fill="#A82467" d="M111.877 121.637L182.842 121.562C187.198 121.563 191.669 121.351 196.008 121.601C203.165 122.014 204.107 132.134 195.71 133.605L123.583 133.736C120.537 133.736 111.375 134.841 109.15 132.844L107.752 131.625C104.279 127.696 107.225 122.696 111.877 121.637Z"/>
	<path fill="#682B74" d="M246.8 212.118L264.257 212.161C265.696 212.168 268.123 211.882 269.464 212.424C273.954 214.237 271.745 228.649 276.821 230.769C283.182 233.426 289.717 234.676 295.241 239.157C295.624 239.468 296.394 238.766 296.805 238.518C300.972 235.998 306.176 231.039 311.25 231.256C313.171 232.214 314.584 233.84 316.086 235.335L322.199 241.31C325.953 244.817 331.285 247.118 328.853 252.755L328.746 253C326.81 257.584 323.713 261.534 321.669 266.056C322.871 268.801 328.491 283.341 330.244 284.489C332.979 286.281 342.863 284.694 347.126 289.573C348.2 290.802 347.61 309.002 347.496 311.603C342.894 316.605 330.813 316.251 329.564 318.196C328.479 319.886 321.148 335.992 321.268 337.566C321.562 341.414 331.912 350.28 328.251 355.384L327.961 355.75C324.432 360.333 315.261 370.133 310.422 372.719C306.226 372.355 299.14 365.889 295.508 363.395L286.396 367.875C282.078 369.784 275.642 370.613 274.497 375L273.184 380.368C272.361 383.769 271.567 386.774 269.473 389.624C268.421 389.917 267.245 389.883 266.157 389.936L249.767 389.901C236.076 389.924 242.19 387.734 238.099 375.742C236.531 371.144 230.958 370.042 227.031 368.219L217.295 363.443C211.987 366.198 207.662 370.5 202.063 372.747C197.495 370.177 185.166 358.118 183.452 353.497C184.326 347.291 188.861 342.467 191.93 337.24L183.556 319.709C181.258 315.651 175.299 316.485 171.253 315.359L170.875 315.251C164.502 313.531 164.756 312.015 164.781 306.25L164.776 296.335C164.775 293.561 163.865 290.136 166.749 288.521C171.681 285.757 178.441 286.169 183.838 284.569L191.514 265.228C191.005 263.963 189.755 262.641 188.946 261.507C184.095 254.708 180.866 250.86 187.192 244.672L192.949 238.952C194.739 237.078 198.739 231.296 201.637 231.189C205.651 231.042 213.816 236.682 217.053 238.858C219.346 237.945 221.472 236.622 223.709 235.579C226.014 234.504 236.389 231.129 237.648 229.956C239.648 228.091 238.02 212.921 246.8 212.118ZM253.428 250.848C225.042 253.625 203.902 277.796 206.901 306.554C209.868 335.002 232.171 352.089 259.753 351.48C288.351 349.713 308.301 324.732 306.309 296.59C304.438 270.153 279.795 248.91 253.428 250.848Z"/>
	<path fill="#A82467" d="M252.915 266.846C262.781 266.142 269.953 268.417 278.003 274.434C301.783 292.209 290.402 331.237 261.062 335.216C255.649 335.687 250.693 335.417 245.5 333.788C213.212 323.662 214.485 272.665 252.915 266.846Z"/>
</svg>
