<?xml version="1.0" encoding="utf-8" ?>
<svg xmlns="http://www.w3.org/2000/svg" xmlns:xlink="http://www.w3.org/1999/xlink" width="512" height="512">
	<defs>
		<linearGradient id="gradient_0" gradientUnits="userSpaceOnUse" x1="495.33401" y1="252.495" x2="18.223301" y2="257.07001">
			<stop offset="0" stop-color="#FF3B00"/>
			<stop offset="1" stop-color="#FFAC00"/>
		</linearGradient>
	</defs>
	<path fill="url(#gradient_0)" d="M445.681 17.0408C492.119 11.1543 501.837 61.1831 489.09 96.4398C488.397 98.3556 487.606 100.911 486.39 102.536L486.397 102.678C477.873 119.443 464.135 131.334 448.06 140.625L436.764 147.035C434.926 148.057 432.998 148.967 431.235 150.112C432.436 157.156 431.541 164.814 431.815 171.968C431.901 174.216 432.377 176.413 432.444 178.659L433.43 213.28L433.578 240.039C433.648 241.978 434.097 243.855 434.199 245.777C435.66 273.208 427.03 281.694 410.204 298.928L241.757 468.266C236.924 473.32 232.14 478.624 226.635 482.96C209.121 496.755 190.489 493.298 175.066 479.362C167.505 472.531 160.652 464.731 153.386 457.568L50.7332 355.42C38.8409 343.939 19.6189 329.911 18.8102 311.75C18.0384 294.418 25.4004 285.581 36.8626 274.255L55.8064 256.058L187.068 125.293C197.545 114.812 207.47 103.569 218.45 93.616C231.216 82.0441 239.55 79.9824 256.237 78.1947L359.413 69.4855C362.904 69.2199 363.972 70.0007 365.997 66.974L369.021 62.7376C386.231 39.8318 405.157 24.2127 433.5 18.718C437.544 17.9342 441.552 17.1744 445.681 17.0408ZM477.641 97.4821C477.571 96.9471 480.251 91.107 480.603 90.0758C486.084 73.988 486.942 50.4495 476.012 36.794C470.527 29.9417 462.297 27.6923 453.923 26.7586C428.576 26.676 407.008 34.8999 388.706 53.0626L375.747 68.2317C389.905 68.3629 403.792 74.9421 413.642 84.9962C428.542 100.203 430.298 118.117 430.437 137.989L430.852 137.71C431.938 137.015 433.412 136.97 434.625 136.503C448.856 131.025 468.547 113.74 475.817 100.742C476.409 99.6851 476.922 98.4479 477.641 97.4821ZM428.846 141.625L412.383 146.016C405.912 147.442 399.241 148.247 392.667 149.034L374.847 150.8L339.013 150.87C317.347 150.46 304.407 177.066 323.527 192.977C340.298 203.92 361.219 188.882 356.311 169.963C355.527 166.94 353.682 164.521 352.133 161.874L362.133 161.455C381.869 160.048 404.835 157.199 423.487 150.092C425.279 149.409 428.973 148.361 430.246 146.956C430.263 145.405 430.512 142.717 429.374 141.549L428.846 141.625ZM166.059 228.298C154.677 232.407 164.716 239.891 169.256 244.747L269.117 344.159C270.949 345.858 272.73 347.873 275.125 348.748L276.128 348.626C285.837 344.699 281.009 339.916 276.416 334.692C269.749 327.107 262.29 320.193 255.184 313.026L173.754 232.147C171.179 229.873 169.624 228.077 166.059 228.298ZM138.289 257.875C135.598 258.678 133.654 260.274 132.319 262.78L131.586 264.491C132.127 265.678 132.711 266.681 133.59 267.648L242.942 376.447C244.28 377.649 245.954 379.131 247.875 378.997C250.867 378.064 252.632 376.67 254.105 373.88L254.591 372.937C250.839 367.073 245.266 362.109 240.39 357.137L142.225 259.803C141.113 258.884 139.828 257.706 138.289 257.875ZM195.001 199.375C192.451 200.616 190.821 202.905 189.169 205.111C191.345 208.507 194.111 211.266 196.876 214.179L297.488 314.113C298.912 315.546 300.297 317.113 302.018 318.187L302.312 318.376C303.235 318.928 304.294 318.785 305.324 318.744L305.669 318.732C308.689 317.315 310.049 315.839 311.434 312.762C310.091 310.623 308.493 308.824 306.779 306.977L200.509 201.744C198.899 200.359 197.291 198.668 195.001 199.375ZM107.109 286.875C95.7566 293.149 105.967 299.722 111.51 305.237L209.399 401.803C211.711 403.951 214.02 406.769 217.423 406.787C220.596 405.503 222.186 403.254 222.947 400.053C222.136 398.293 221.113 396.877 219.792 395.458L114.428 291.613C112.868 290.151 109.448 286.129 107.109 286.875ZM227.433 171.625C224.381 172.515 222.122 174.626 220.183 177.08C222.248 181.224 226.379 184.784 229.565 188.109L309.505 267.513C314.684 272.592 328.441 287.879 334.375 290.249C337.796 290.019 340.235 286.573 341.686 283.805C336.865 276.664 329.734 270.648 323.576 264.654L233.594 175.375C232.096 173.983 229.724 171.156 227.433 171.625Z"/>
</svg>
