<?xml version="1.0" encoding="utf-8" ?>
<svg xmlns="http://www.w3.org/2000/svg" xmlns:xlink="http://www.w3.org/1999/xlink" width="512" height="512">
	<path d="M50.9938 9.40143L449.26 9.24969C464.481 9.25057 476.378 9.73707 488.981 19.093C497.71 25.5738 507.135 36.6386 508.716 47.7891L509.985 56.8762L510.018 444.089C510.016 448.873 510.421 454.09 509.777 458.816C506.37 483.84 485.206 501.796 460.312 502.52L63.4272 502.555C56.4507 502.554 49.6639 502.754 42.7512 501.66C21.938 498.366 3.69307 478.375 2.10391 457.463C1.87197 454.411 2.00399 451.285 2.00309 448.223L2.00254 60.2632C2.02774 32.4732 23.2691 11.4763 50.9938 9.40143ZM18.75 128.85L18.7559 436.184C18.7575 441.119 18.6148 446.111 18.9315 451.035C20.22 471.068 32.2014 484.85 53.4001 485.431L451.285 485.503C455.648 485.498 460.646 485.913 464.9 484.956C480.745 481.391 492.214 469.669 493.184 453.228C493.661 445.139 493.273 436.801 493.274 428.691L493.247 137.479C493.239 135.155 493.601 132.084 493.198 129.832L341.275 129.367C341.281 135.677 341.389 141.705 339.756 147.871C342.932 149.759 345.421 151.512 347.573 154.585C356.345 169.73 349.915 190.387 336.328 200.475L332.701 203C330.668 204.382 330.834 205.663 330.184 208.002C326.904 219.802 318.716 233.599 310.78 243.006L306.614 247.604C298.917 255.797 341.791 275.682 348 278.02C374.701 288.073 401.215 285.982 417.601 314.2C422.074 321.903 422.68 329.854 423.635 338.516L430.124 389.775C431.163 401.436 417.075 398.386 409.88 398.372L92.5726 398.399C87.3451 398.473 83.5014 397.864 81.9925 391.875L81.9066 391.543C81.619 390.332 81.7246 388.879 81.8447 387.645L88.2528 339C90.942 314.455 98.9689 299.254 124.148 289.738C130.965 287.162 138.155 285.511 145.179 283.595L163.073 278.048C172.191 274.846 202.47 260.749 206.816 251.044C204.499 247.01 201.545 243.392 198.745 239.689C192.316 231.188 187.157 222.226 183.155 212.336L180.965 206.542C180.08 204.106 180.03 203.984 177.971 202.386C162.278 190.206 150.971 162.97 169.616 148.995C172.368 146.933 171.889 147.827 171.463 144.058C170.91 139.156 170.642 134.345 171.04 129.421L18.75 128.85Z"/>
	<path fill="#FED875" d="M272.84 317.875L273.326 317.958C273.288 319.084 272.644 320.428 272.29 321.5L256.116 366.771C255.898 366.372 255.975 366.556 255.836 366.133L251.141 354.436L238.661 317.925C249.393 319.86 262.099 319.552 272.84 317.875Z"/>
	<path fill="#4F6A64" d="M209.118 272.816L235.055 360.176C229.952 356.936 225.566 352.768 221.575 348.261C212.536 337.901 206.248 325.685 199.508 313.801L190.403 299.038C187.987 295.373 185.622 291.616 182.759 288.28C191.872 284.301 201.008 278.512 209.118 272.816Z"/>
	<path fill="#4F6A64" d="M302.942 272.108C309.522 277.039 322.27 285.662 329.303 288.202C322.49 297.559 316.505 307.476 310.792 317.531C304.741 328.183 299.345 338.998 291.118 348.189C286.798 352.755 281.645 356.952 276.195 360.075C284.458 343.272 289.231 324.712 293.95 306.674L302.942 272.108Z"/>
	<path fill="#FED875" d="M224.036 262.192C242.631 276.836 270.564 277.509 288.902 262.177L282.298 284.893L277.719 298.976C266.358 302.871 245.064 304.015 234.121 298.806C232.329 295.613 231.619 291.608 230.655 288.081L224.036 262.192Z"/>
	<path fill="#E36249" d="M294.42 115.316L294.492 115.067C296.719 106.558 291.062 101.694 282.721 104.54C278.099 106.118 273.744 108.982 269.26 110.987C246.108 121.337 222.286 128.299 196.725 128.301C195.181 128.301 188.436 128.612 187.631 127.727C188.611 96.6779 217.398 68.3791 247.983 64.9457C280.495 61.2961 308.796 80.8928 319.893 110.742C321.8 115.87 323.472 121.424 324.95 126.714L323.098 128.481C322.702 127.979 322.244 127.483 322.038 126.869L321.976 126.595C320.227 126.385 318.505 126.738 316.754 126.769C309.176 126.9 299.787 120.449 294.42 115.316Z"/>
	<path fill="#FED875" d="M294.42 115.316C299.787 120.449 309.176 126.9 316.754 126.769C318.505 126.738 320.227 126.385 321.976 126.595L322.038 126.869C322.244 127.483 322.702 127.979 323.098 128.481C321.594 129.947 319.755 131.607 319.298 133.75C318.307 138.398 320.145 154.308 323.441 157.606C330.097 164.267 337.445 160.479 334.431 173.552C332.701 181.051 328.413 185.726 321.93 189.481C316.443 192.659 317.094 193.975 315.345 199.899C306.925 228.412 279.284 263.262 245.742 255.102C223.167 249.61 204.195 222.341 197.275 201.275C193.151 188.721 196.523 194.353 186.635 187.498C181.049 183.625 173.47 167.973 178.702 163.123C183.344 158.821 188.93 160.135 190.192 153.892C190.762 151.074 191.037 148.211 191.677 145.404L207.019 145.273C230.84 143.689 253.271 136.032 274.991 126.51C281.582 123.621 289.624 120.817 294.42 115.316Z"/>
	<path fill="#ED956B" d="M119.853 26.4226L451.811 26.4282C456.429 26.43 461.562 26.0802 466.06 27.2231C478.122 30.288 488.087 38.6262 491.545 50.8489C494.175 60.1444 493.245 70.8121 493.252 80.4077L493.323 112.088C492.574 112.566 354.162 112.158 338.546 112.299C337.4 110.187 336.875 106.977 336.006 104.642C327.35 78.9981 302.855 55.9014 276.161 49.875C235.177 40.6225 190.43 62.3701 176.372 102.621C175.252 105.826 174.702 108.968 173.971 112.255L24.8836 112.222C23.6425 112.219 19.9205 112.595 18.9458 112.046L18.7963 67.6174C18.9386 39.8135 30.112 26.552 59.2226 26.4525L119.853 26.4226Z"/>
	<path d="M127.903 43.3419C133.829 42.5935 140.046 45.5341 144.628 49.0652C163.791 63.8341 153.315 91.7827 130.811 94.1543C99.1823 96.3349 92.3507 47.9658 127.903 43.3419Z"/>
	<path fill="#DDE45E" d="M127.991 60.3525C140.565 60.7174 140.317 75.5024 130.202 77.4888C117.755 77.8364 117.715 61.7996 127.991 60.3525Z"/>
	<path d="M63.4343 43.0845C92.387 39.3934 103.515 88.2473 67.7015 93.9977C33.7294 95.3651 29.5317 48.5792 63.4343 43.0845Z"/>
	<path fill="#E36249" d="M63.4849 60.2918C73.6875 58.8096 78.8561 72.5391 67.6244 76.8955C56.5982 79.3815 53.3604 64.7115 63.4849 60.2918Z"/>
	<path d="M282.416 450.238L351.536 450.192C358.012 450.174 366.196 449.081 367.723 458.124L367.781 458.5C369.89 471.304 355.093 469.207 347.597 469.215L229.625 469.248L180.334 469.248C172.033 469.249 163.48 469.69 155.206 469.173C141.678 468.327 141.051 454.18 150.483 450.998L150.747 450.91C152.987 450.078 155.625 450.278 157.998 450.259L282.416 450.238Z"/>
	<path d="M388.289 414.193C402.536 413.827 402.209 430.037 391.272 431.225C388.478 431.528 385.449 431.295 382.625 431.295L124.687 431.31C124.543 431.049 120.669 431.639 118.221 430.643C113.477 428.714 111.754 423.562 113.775 419C116.495 412.863 125.204 414.24 130.595 414.236L388.289 414.193Z"/>
</svg>
